<svg width="516" height="638" viewBox="0 0 516 638" fill="none" xmlns="http://www.w3.org/2000/svg">
<path d="M1 203.5C3.5 74 52.5 4.5 109.5 1L162 203.5H353.5L408 1C497 20 515.5 122.5 515.5 203.5C515.5 284.5 504.106 400.945 480 510.5C445.18 534.205 433.953 558.446 422.5 613L372.5 636.5L333 608.5H187L143 636.5L92 613C86.5148 567.633 77.4539 544.104 35 510.5C9.64441 393.374 1.91296 326.218 1 203.5Z" fill="#FFC525" stroke="#FFC525"/>
<path d="M212 376.5L33.5 325L43.5 376.5C98.7243 411.928 144.682 416.594 232 419.5L212 376.5Z" fill="#83FFFF" stroke="#83FFFF"/>
<path d="M283.5 420.5L303.5 376L482.5 324.5L474 376C432.462 408.968 378.352 412.828 283.5 420.5Z" fill="#83FFFF" stroke="#83FFFF"/>
</svg>
